o Cone
v 0.000000 0.500000 0.000000
v 0.000000 -0.500000 0.500000
v 0.031400 -0.500000 0.499000
v 0.062700 -0.500000 0.496100
v 0.093700 -0.500000 0.491100
v 0.124300 -0.500000 0.484300
v 0.154500 -0.500000 0.475500
v 0.184100 -0.500000 0.464900
v 0.212900 -0.500000 0.452400
v 0.240900 -0.500000 0.438200
v 0.267900 -0.500000 0.422200
v 0.293900 -0.500000 0.404500
v 0.318700 -0.500000 0.385300
v 0.342300 -0.500000 0.364500
v 0.364500 -0.500000 0.342300
v 0.385300 -0.500000 0.318700
v 0.404500 -0.500000 0.293900
v 0.422200 -0.500000 0.267900
v 0.438200 -0.500000 0.240900
v 0.452400 -0.500000 0.212900
v 0.464900 -0.500000 0.184100
v 0.475500 -0.500000 0.154500
v 0.484300 -0.500000 0.124300
v 0.491100 -0.500000 0.093700
v 0.496100 -0.500000 0.062700
v 0.499000 -0.500000 0.031400
v 0.500000 -0.500000 0.000000
v 0.499000 -0.500000 -0.031400
v 0.496100 -0.500000 -0.062700
v 0.491100 -0.500000 -0.093700
v 0.484300 -0.500000 -0.124300
v 0.475500 -0.500000 -0.154500
v 0.464900 -0.500000 -0.184100
v 0.452400 -0.500000 -0.212900
v 0.438200 -0.500000 -0.240900
v 0.422200 -0.500000 -0.267900
v 0.404500 -0.500000 -0.293900
v 0.385300 -0.500000 -0.318700
v 0.364500 -0.500000 -0.342300
v 0.342300 -0.500000 -0.364500
v 0.318700 -0.500000 -0.385300
v 0.293900 -0.500000 -0.404500
v 0.267900 -0.500000 -0.422200
v 0.240900 -0.500000 -0.438200
v 0.212900 -0.500000 -0.452400
v 0.184100 -0.500000 -0.464900
v 0.154500 -0.500000 -0.475500
v 0.124300 -0.500000 -0.484300
v 0.093700 -0.500000 -0.491100
v 0.062700 -0.500000 -0.496100
v 0.031400 -0.500000 -0.499000
v 0.000000 -0.500000 -0.500000
v -0.031400 -0.500000 -0.499000
v -0.062700 -0.500000 -0.496100
v -0.093700 -0.500000 -0.491100
v -0.124300 -0.500000 -0.484300
v -0.154500 -0.500000 -0.475500
v -0.184100 -0.500000 -0.464900
v -0.212900 -0.500000 -0.452400
v -0.240900 -0.500000 -0.438200
v -0.267900 -0.500000 -0.422200
v -0.293900 -0.500000 -0.404500
v -0.318700 -0.500000 -0.385300
v -0.342300 -0.500000 -0.364500
v -0.364500 -0.500000 -0.342300
v -0.385300 -0.500000 -0.318700
v -0.404500 -0.500000 -0.293900
v -0.422200 -0.500000 -0.267900
v -0.438200 -0.500000 -0.240900
v -0.452400 -0.500000 -0.212900
v -0.464900 -0.500000 -0.184100
v -0.475500 -0.500000 -0.154500
v -0.484300 -0.500000 -0.124300
v -0.491100 -0.500000 -0.093700
v -0.496100 -0.500000 -0.062700
v -0.499000 -0.500000 -0.031400
v -0.500000 -0.500000 0.000000
v -0.499000 -0.500000 0.031400
v -0.496100 -0.500000 0.062700
v -0.491100 -0.500000 0.093700
v -0.484300 -0.500000 0.124300
v -0.475500 -0.500000 0.154500
v -0.464900 -0.500000 0.184100
v -0.452400 -0.500000 0.212900
v -0.438200 -0.500000 0.240900
v -0.422200 -0.500000 0.267900
v -0.404500 -0.500000 0.293900
v -0.385300 -0.500000 0.318700
v -0.364500 -0.500000 0.342300
v -0.342300 -0.500000 0.364500
v -0.318700 -0.500000 0.385300
v -0.293900 -0.500000 0.404500
v -0.267900 -0.500000 0.422200
v -0.240900 -0.500000 0.438200
v -0.212900 -0.500000 0.452400
v -0.184100 -0.500000 0.464900
v -0.154500 -0.500000 0.475500
v -0.124300 -0.500000 0.484300
v -0.093700 -0.500000 0.491100
v -0.062700 -0.500000 0.496100
v -0.031400 -0.500000 0.499000
v 0.000000 -0.500000 0.000000
vt 0.000000 1.000000
vt 0.000000 0.000000
vt 0.010000 0.000000
vt 0.010000 1.000000
vt 0.020000 0.000000
vt 0.020000 1.000000
vt 0.030000 0.000000
vt 0.030000 1.000000
vt 0.040000 0.000000
vt 0.040000 1.000000
vt 0.050000 0.000000
vt 0.050000 1.000000
vt 0.060000 0.000000
vt 0.060000 1.000000
vt 0.070000 0.000000
vt 0.070000 1.000000
vt 0.080000 0.000000
vt 0.080000 1.000000
vt 0.090000 0.000000
vt 0.090000 1.000000
vt 0.100000 0.000000
vt 0.100000 1.000000
vt 0.110000 0.000000
vt 0.110000 1.000000
vt 0.120000 0.000000
vt 0.120000 1.000000
vt 0.130000 0.000000
vt 0.130000 1.000000
vt 0.140000 0.000000
vt 0.140000 1.000000
vt 0.150000 0.000000
vt 0.150000 1.000000
vt 0.160000 0.000000
vt 0.160000 1.000000
vt 0.170000 0.000000
vt 0.170000 1.000000
vt 0.180000 0.000000
vt 0.180000 1.000000
vt 0.190000 0.000000
vt 0.190000 1.000000
vt 0.200000 0.000000
vt 0.200000 1.000000
vt 0.210000 0.000000
vt 0.210000 1.000000
vt 0.220000 0.000000
vt 0.220000 1.000000
vt 0.230000 0.000000
vt 0.230000 1.000000
vt 0.240000 0.000000
vt 0.240000 1.000000
vt 0.250000 0.000000
vt 0.250000 1.000000
vt 0.260000 0.000000
vt 0.260000 1.000000
vt 0.270000 0.000000
vt 0.270000 1.000000
vt 0.280000 0.000000
vt 0.280000 1.000000
vt 0.290000 0.000000
vt 0.290000 1.000000
vt 0.300000 0.000000
vt 0.300000 1.000000
vt 0.310000 0.000000
vt 0.310000 1.000000
vt 0.320000 0.000000
vt 0.320000 1.000000
vt 0.330000 0.000000
vt 0.330000 1.000000
vt 0.340000 0.000000
vt 0.340000 1.000000
vt 0.350000 0.000000
vt 0.350000 1.000000
vt 0.360000 0.000000
vt 0.360000 1.000000
vt 0.370000 0.000000
vt 0.370000 1.000000
vt 0.380000 0.000000
vt 0.380000 1.000000
vt 0.390000 0.000000
vt 0.390000 1.000000
vt 0.400000 0.000000
vt 0.400000 1.000000
vt 0.410000 0.000000
vt 0.410000 1.000000
vt 0.420000 0.000000
vt 0.420000 1.000000
vt 0.430000 0.000000
vt 0.430000 1.000000
vt 0.440000 0.000000
vt 0.440000 1.000000
vt 0.450000 0.000000
vt 0.450000 1.000000
vt 0.460000 0.000000
vt 0.460000 1.000000
vt 0.470000 0.000000
vt 0.470000 1.000000
vt 0.480000 0.000000
vt 0.480000 1.000000
vt 0.490000 0.000000
vt 0.490000 1.000000
vt 0.500000 0.000000
vt 0.500000 1.000000
vt 0.510000 0.000000
vt 0.510000 1.000000
vt 0.520000 0.000000
vt 0.520000 1.000000
vt 0.530000 0.000000
vt 0.530000 1.000000
vt 0.540000 0.000000
vt 0.540000 1.000000
vt 0.550000 0.000000
vt 0.550000 1.000000
vt 0.560000 0.000000
vt 0.560000 1.000000
vt 0.570000 0.000000
vt 0.570000 1.000000
vt 0.580000 0.000000
vt 0.580000 1.000000
vt 0.590000 0.000000
vt 0.590000 1.000000
vt 0.600000 0.000000
vt 0.600000 1.000000
vt 0.610000 0.000000
vt 0.610000 1.000000
vt 0.620000 0.000000
vt 0.620000 1.000000
vt 0.630000 0.000000
vt 0.630000 1.000000
vt 0.640000 0.000000
vt 0.640000 1.000000
vt 0.650000 0.000000
vt 0.650000 1.000000
vt 0.660000 0.000000
vt 0.660000 1.000000
vt 0.670000 0.000000
vt 0.670000 1.000000
vt 0.680000 0.000000
vt 0.680000 1.000000
vt 0.690000 0.000000
vt 0.690000 1.000000
vt 0.700000 0.000000
vt 0.700000 1.000000
vt 0.710000 0.000000
vt 0.710000 1.000000
vt 0.720000 0.000000
vt 0.720000 1.000000
vt 0.730000 0.000000
vt 0.730000 1.000000
vt 0.740000 0.000000
vt 0.740000 1.000000
vt 0.750000 0.000000
vt 0.750000 1.000000
vt 0.760000 0.000000
vt 0.760000 1.000000
vt 0.770000 0.000000
vt 0.770000 1.000000
vt 0.780000 0.000000
vt 0.780000 1.000000
vt 0.790000 0.000000
vt 0.790000 1.000000
vt 0.800000 0.000000
vt 0.800000 1.000000
vt 0.810000 0.000000
vt 0.810000 1.000000
vt 0.820000 0.000000
vt 0.820000 1.000000
vt 0.830000 0.000000
vt 0.830000 1.000000
vt 0.840000 0.000000
vt 0.840000 1.000000
vt 0.850000 0.000000
vt 0.850000 1.000000
vt 0.860000 0.000000
vt 0.860000 1.000000
vt 0.870000 0.000000
vt 0.870000 1.000000
vt 0.880000 0.000000
vt 0.880000 1.000000
vt 0.890000 0.000000
vt 0.890000 1.000000
vt 0.900000 0.000000
vt 0.900000 1.000000
vt 0.910000 0.000000
vt 0.910000 1.000000
vt 0.920000 0.000000
vt 0.920000 1.000000
vt 0.930000 0.000000
vt 0.930000 1.000000
vt 0.940000 0.000000
vt 0.940000 1.000000
vt 0.950000 0.000000
vt 0.950000 1.000000
vt 0.960000 0.000000
vt 0.960000 1.000000
vt 0.970000 0.000000
vt 0.970000 1.000000
vt 0.980000 0.000000
vt 0.980000 1.000000
vt 0.990000 0.000000
vt 0.990000 1.000000
vt 1.000000 0.000000
vn 0.000600 0.999800 0.019800
vn 0.000000 0.447200 0.894400
vn 0.055500 0.447200 0.892700
vn 0.112500 0.447200 0.887300
vn 0.168300 0.447200 0.878500
vn 0.222200 0.447200 0.866400
vn 0.276000 0.447200 0.850800
vn 0.329000 0.447200 0.831700
vn 0.380500 0.447200 0.809500
vn 0.430500 0.447300 0.784000
vn 0.479900 0.447200 0.754800
vn 0.525700 0.447200 0.723600
vn 0.569800 0.447200 0.689500
vn 0.612200 0.447200 0.652000
vn 0.652000 0.447200 0.612200
vn 0.689500 0.447200 0.569800
vn 0.723600 0.447200 0.525700
vn 0.754800 0.447200 0.479900
vn 0.784000 0.447300 0.430500
vn 0.809500 0.447200 0.380500
vn 0.831700 0.447200 0.329000
vn 0.850800 0.447200 0.276000
vn 0.866400 0.447200 0.222200
vn 0.878500 0.447200 0.168300
vn 0.887300 0.447200 0.112500
vn 0.892700 0.447200 0.055500
vn 0.894400 0.447200 0.000000
vn 0.892700 0.447200 -0.055500
vn 0.887300 0.447200 -0.112500
vn 0.878500 0.447200 -0.168300
vn 0.866400 0.447200 -0.222200
vn 0.850800 0.447200 -0.276000
vn 0.831700 0.447200 -0.329000
vn 0.809500 0.447200 -0.380500
vn 0.784000 0.447300 -0.430500
vn 0.754800 0.447200 -0.479900
vn 0.723600 0.447200 -0.525700
vn 0.689500 0.447200 -0.569800
vn 0.652000 0.447200 -0.612200
vn 0.612200 0.447200 -0.652000
vn 0.569800 0.447200 -0.689500
vn 0.525700 0.447200 -0.723600
vn 0.479900 0.447200 -0.754800
vn 0.430500 0.447300 -0.784000
vn 0.380500 0.447200 -0.809500
vn 0.329000 0.447200 -0.831700
vn 0.276000 0.447200 -0.850800
vn 0.222200 0.447200 -0.866400
vn 0.168300 0.447200 -0.878500
vn 0.112500 0.447200 -0.887300
vn 0.055500 0.447200 -0.892700
vn 0.000000 0.447200 -0.894400
vn -0.055500 0.447200 -0.892700
vn -0.112500 0.447200 -0.887300
vn -0.168300 0.447200 -0.878500
vn -0.222200 0.447200 -0.866400
vn -0.276000 0.447200 -0.850800
vn -0.329000 0.447200 -0.831700
vn -0.380500 0.447200 -0.809500
vn -0.430500 0.447300 -0.784000
vn -0.479900 0.447200 -0.754800
vn -0.525700 0.447200 -0.723600
vn -0.569800 0.447200 -0.689500
vn -0.612200 0.447200 -0.652000
vn -0.652000 0.447200 -0.612200
vn -0.689500 0.447200 -0.569800
vn -0.723600 0.447200 -0.525700
vn -0.754800 0.447200 -0.479900
vn -0.784000 0.447300 -0.430500
vn -0.809500 0.447200 -0.380500
vn -0.831700 0.447200 -0.329000
vn -0.850800 0.447200 -0.276000
vn -0.866400 0.447200 -0.222200
vn -0.878500 0.447200 -0.168300
vn -0.887300 0.447200 -0.112500
vn -0.892700 0.447200 -0.055500
vn -0.894400 0.447200 0.000000
vn -0.892700 0.447200 0.055500
vn -0.887300 0.447200 0.112500
vn -0.878500 0.447200 0.168300
vn -0.866400 0.447200 0.222200
vn -0.850800 0.447200 0.276000
vn -0.831700 0.447200 0.329000
vn -0.809500 0.447200 0.380500
vn -0.784000 0.447300 0.430500
vn -0.754800 0.447200 0.479900
vn -0.723600 0.447200 0.525700
vn -0.689500 0.447200 0.569800
vn -0.652000 0.447200 0.612200
vn -0.612200 0.447200 0.652000
vn -0.569800 0.447200 0.689500
vn -0.525700 0.447200 0.723600
vn -0.479900 0.447200 0.754800
vn -0.430500 0.447300 0.784000
vn -0.380500 0.447200 0.809500
vn -0.329000 0.447200 0.831700
vn -0.276000 0.447200 0.850800
vn -0.222200 0.447200 0.866400
vn -0.168300 0.447200 0.878500
vn -0.112500 0.447200 0.887300
vn -0.055500 0.447200 0.892700
vn 0.000000 -1.000000 0.000000
usemtl b0b0b0
s 1
f 1/1/1 2/2/2 3/3/3
f 1/4/1 3/3/3 4/5/4
f 1/6/1 4/5/4 5/7/5
f 1/8/1 5/7/5 6/9/6
f 1/10/1 6/9/6 7/11/7
f 1/12/1 7/11/7 8/13/8
f 1/14/1 8/13/8 9/15/9
f 1/16/1 9/15/9 10/17/10
f 1/18/1 10/17/10 11/19/11
f 1/20/1 11/19/11 12/21/12
f 1/22/1 12/21/12 13/23/13
f 1/24/1 13/23/13 14/25/14
f 1/26/1 14/25/14 15/27/15
f 1/28/1 15/27/15 16/29/16
f 1/30/1 16/29/16 17/31/17
f 1/32/1 17/31/17 18/33/18
f 1/34/1 18/33/18 19/35/19
f 1/36/1 19/35/19 20/37/20
f 1/38/1 20/37/20 21/39/21
f 1/40/1 21/39/21 22/41/22
f 1/42/1 22/41/22 23/43/23
f 1/44/1 23/43/23 24/45/24
f 1/46/1 24/45/24 25/47/25
f 1/48/1 25/47/25 26/49/26
f 1/50/1 26/49/26 27/51/27
f 1/52/1 27/51/27 28/53/28
f 1/54/1 28/53/28 29/55/29
f 1/56/1 29/55/29 30/57/30
f 1/58/1 30/57/30 31/59/31
f 1/60/1 31/59/31 32/61/32
f 1/62/1 32/61/32 33/63/33
f 1/64/1 33/63/33 34/65/34
f 1/66/1 34/65/34 35/67/35
f 1/68/1 35/67/35 36/69/36
f 1/70/1 36/69/36 37/71/37
f 1/72/1 37/71/37 38/73/38
f 1/74/1 38/73/38 39/75/39
f 1/76/1 39/75/39 40/77/40
f 1/78/1 40/77/40 41/79/41
f 1/80/1 41/79/41 42/81/42
f 1/82/1 42/81/42 43/83/43
f 1/84/1 43/83/43 44/85/44
f 1/86/1 44/85/44 45/87/45
f 1/88/1 45/87/45 46/89/46
f 1/90/1 46/89/46 47/91/47
f 1/92/1 47/91/47 48/93/48
f 1/94/1 48/93/48 49/95/49
f 1/96/1 49/95/49 50/97/50
f 1/98/1 50/97/50 51/99/51
f 1/100/1 51/99/51 52/101/52
f 1/102/1 52/101/52 53/103/53
f 1/104/1 53/103/53 54/105/54
f 1/106/1 54/105/54 55/107/55
f 1/108/1 55/107/55 56/109/56
f 1/110/1 56/109/56 57/111/57
f 1/112/1 57/111/57 58/113/58
f 1/114/1 58/113/58 59/115/59
f 1/116/1 59/115/59 60/117/60
f 1/118/1 60/117/60 61/119/61
f 1/120/1 61/119/61 62/121/62
f 1/122/1 62/121/62 63/123/63
f 1/124/1 63/123/63 64/125/64
f 1/126/1 64/125/64 65/127/65
f 1/128/1 65/127/65 66/129/66
f 1/130/1 66/129/66 67/131/67
f 1/132/1 67/131/67 68/133/68
f 1/134/1 68/133/68 69/135/69
f 1/136/1 69/135/69 70/137/70
f 1/138/1 70/137/70 71/139/71
f 1/140/1 71/139/71 72/141/72
f 1/142/1 72/141/72 73/143/73
f 1/144/1 73/143/73 74/145/74
f 1/146/1 74/145/74 75/147/75
f 1/148/1 75/147/75 76/149/76
f 1/150/1 76/149/76 77/151/77
f 1/152/1 77/151/77 78/153/78
f 1/154/1 78/153/78 79/155/79
f 1/156/1 79/155/79 80/157/80
f 1/158/1 80/157/80 81/159/81
f 1/160/1 81/159/81 82/161/82
f 1/162/1 82/161/82 83/163/83
f 1/164/1 83/163/83 84/165/84
f 1/166/1 84/165/84 85/167/85
f 1/168/1 85/167/85 86/169/86
f 1/170/1 86/169/86 87/171/87
f 1/172/1 87/171/87 88/173/88
f 1/174/1 88/173/88 89/175/89
f 1/176/1 89/175/89 90/177/90
f 1/178/1 90/177/90 91/179/91
f 1/180/1 91/179/91 92/181/92
f 1/182/1 92/181/92 93/183/93
f 1/184/1 93/183/93 94/185/94
f 1/186/1 94/185/94 95/187/95
f 1/188/1 95/187/95 96/189/96
f 1/190/1 96/189/96 97/191/97
f 1/192/1 97/191/97 98/193/98
f 1/194/1 98/193/98 99/195/99
f 1/196/1 99/195/99 100/197/100
f 1/198/1 100/197/100 101/199/101
f 1/200/1 101/199/101 2/201/2
f 3/3/102 2/2/102 102/1/102
f 4/5/102 3/3/102 102/1/102
f 5/7/102 4/5/102 102/1/102
f 6/9/102 5/7/102 102/1/102
f 7/11/102 6/9/102 102/1/102
f 8/13/102 7/11/102 102/1/102
f 9/15/102 8/13/102 102/1/102
f 10/17/102 9/15/102 102/1/102
f 11/19/102 10/17/102 102/1/102
f 12/21/102 11/19/102 102/1/102
f 13/23/102 12/21/102 102/1/102
f 14/25/102 13/23/102 102/1/102
f 15/27/102 14/25/102 102/1/102
f 16/29/102 15/27/102 102/1/102
f 17/31/102 16/29/102 102/1/102
f 18/33/102 17/31/102 102/1/102
f 19/35/102 18/33/102 102/1/102
f 20/37/102 19/35/102 102/1/102
f 21/39/102 20/37/102 102/1/102
f 22/41/102 21/39/102 102/1/102
f 23/43/102 22/41/102 102/1/102
f 24/45/102 23/43/102 102/1/102
f 25/47/102 24/45/102 102/1/102
f 26/49/102 25/47/102 102/1/102
f 27/51/102 26/49/102 102/1/102
f 28/53/102 27/51/102 102/1/102
f 29/55/102 28/53/102 102/1/102
f 30/57/102 29/55/102 102/1/102
f 31/59/102 30/57/102 102/1/102
f 32/61/102 31/59/102 102/1/102
f 33/63/102 32/61/102 102/1/102
f 34/65/102 33/63/102 102/1/102
f 35/67/102 34/65/102 102/1/102
f 36/69/102 35/67/102 102/1/102
f 37/71/102 36/69/102 102/1/102
f 38/73/102 37/71/102 102/1/102
f 39/75/102 38/73/102 102/1/102
f 40/77/102 39/75/102 102/1/102
f 41/79/102 40/77/102 102/1/102
f 42/81/102 41/79/102 102/1/102
f 43/83/102 42/81/102 102/1/102
f 44/85/102 43/83/102 102/1/102
f 45/87/102 44/85/102 102/1/102
f 46/89/102 45/87/102 102/1/102
f 47/91/102 46/89/102 102/1/102
f 48/93/102 47/91/102 102/1/102
f 49/95/102 48/93/102 102/1/102
f 50/97/102 49/95/102 102/1/102
f 51/99/102 50/97/102 102/1/102
f 52/101/102 51/99/102 102/1/102
f 53/103/102 52/101/102 102/1/102
f 54/105/102 53/103/102 102/1/102
f 55/107/102 54/105/102 102/1/102
f 56/109/102 55/107/102 102/1/102
f 57/111/102 56/109/102 102/1/102
f 58/113/102 57/111/102 102/1/102
f 59/115/102 58/113/102 102/1/102
f 60/117/102 59/115/102 102/1/102
f 61/119/102 60/117/102 102/1/102
f 62/121/102 61/119/102 102/1/102
f 63/123/102 62/121/102 102/1/102
f 64/125/102 63/123/102 102/1/102
f 65/127/102 64/125/102 102/1/102
f 66/129/102 65/127/102 102/1/102
f 67/131/102 66/129/102 102/1/102
f 68/133/102 67/131/102 102/1/102
f 69/135/102 68/133/102 102/1/102
f 70/137/102 69/135/102 102/1/102
f 71/139/102 70/137/102 102/1/102
f 72/141/102 71/139/102 102/1/102
f 73/143/102 72/141/102 102/1/102
f 74/145/102 73/143/102 102/1/102
f 75/147/102 74/145/102 102/1/102
f 76/149/102 75/147/102 102/1/102
f 77/151/102 76/149/102 102/1/102
f 78/153/102 77/151/102 102/1/102
f 79/155/102 78/153/102 102/1/102
f 80/157/102 79/155/102 102/1/102
f 81/159/102 80/157/102 102/1/102
f 82/161/102 81/159/102 102/1/102
f 83/163/102 82/161/102 102/1/102
f 84/165/102 83/163/102 102/1/102
f 85/167/102 84/165/102 102/1/102
f 86/169/102 85/167/102 102/1/102
f 87/171/102 86/169/102 102/1/102
f 88/173/102 87/171/102 102/1/102
f 89/175/102 88/173/102 102/1/102
f 90/177/102 89/175/102 102/1/102
f 91/179/102 90/177/102 102/1/102
f 92/181/102 91/179/102 102/1/102
f 93/183/102 92/181/102 102/1/102
f 94/185/102 93/183/102 102/1/102
f 95/187/102 94/185/102 102/1/102
f 96/189/102 95/187/102 102/1/102
f 97/191/102 96/189/102 102/1/102
f 98/193/102 97/191/102 102/1/102
f 99/195/102 98/193/102 102/1/102
f 100/197/102 99/195/102 102/1/102
f 101/199/102 100/197/102 102/1/102
f 2/201/102 101/199/102 102/1/102
